<svg width="250" height="250" viewBox="0 0 250 250" fill="none" xmlns="http://www.w3.org/2000/svg">
<path d="M78 50.0903C68.1508 50.0903 58.3982 52.0302 49.2987 55.7993C40.1993 59.5684 31.9314 65.0929 24.967 72.0573C18.0026 79.0217 12.4781 87.2896 8.70903 96.389C4.93993 105.488 3 115.241 3 125.09C3 134.939 4.93993 144.692 8.70903 153.792C12.4781 162.891 18.0026 171.159 24.967 178.123C31.9314 185.088 40.1993 190.612 49.2987 194.381C58.3982 198.15 68.1509 200.09 78 200.09L78 175.093C71.4336 175.093 64.9315 173.799 58.8649 171.287C52.7983 168.774 47.2861 165.091 42.6429 160.447C37.9997 155.804 34.3166 150.292 31.8037 144.225C29.2909 138.159 27.9975 131.657 27.9975 125.09C27.9975 118.524 29.2908 112.022 31.8037 105.955C34.3166 99.8886 37.9997 94.3763 42.6429 89.7332C47.2861 85.09 52.7983 81.4068 58.8649 78.894C64.9314 76.3811 71.4336 75.0878 78 75.0878L78 50.0903Z" fill="#FF5A5F"/>
<path d="M78 50.0903H115.5C122.404 50.0903 128 55.6867 128 62.5903C128 69.4938 122.404 75.0903 115.5 75.0903H78V50.0903Z" fill="#FF5A5F"/>
<path d="M53 125.5C53 118.596 58.5964 113 65.5 113H90.5C97.4036 113 103 118.596 103 125.5C103 132.404 97.4036 138 90.5 138H65.5C58.5964 138 53 132.404 53 125.5Z" fill="#FF5A5F"/>
<path d="M78 175.09H115.5C122.404 175.09 128 180.687 128 187.59C128 194.494 122.404 200.09 115.5 200.09H78V175.09Z" fill="#FF5A5F"/>
<line x1="116.793" y1="63.8262" x2="228.377" y2="185.375" stroke="#FF5A5F" stroke-width="25" stroke-linecap="round" stroke-linejoin="round"/>
<line x1="12.5" y1="-12.5" x2="177.5" y2="-12.3228" transform="matrix(0.677056 -0.735931 -0.735931 -0.677056 99.1304 187.037)" stroke="#FF5A5F" stroke-width="25" stroke-linecap="round" stroke-linejoin="round"/>
<path d="M240.592 50.3445C244.247 50.3439 247.053 53.5833 246.532 57.2007L242.316 86.4446C241.582 91.5325 235.208 93.4024 231.842 89.517L206.512 60.2779C203.146 56.3926 205.906 50.3501 211.046 50.3492L240.592 50.3445Z" fill="#FF5A5F"/>
</svg>
