<svg width="732" height="227" viewBox="0 0 732 227" fill="none" xmlns="http://www.w3.org/2000/svg">
<path d="M65.4 68.4C80.3333 68.4 92.4667 73.4 101.8 83.4C110.6 93 115 105.2 115 120C115 134.8 110.6 147 101.8 156.6C92.4667 166.6 80.3333 171.6 65.4 171.6C50.4667 171.6 38.3333 166.6 29 156.6C20.2 147 15.8 134.8 15.8 120C15.8 105.2 20.2 93 29 83.4C38.3333 73.4 50.4667 68.4 65.4 68.4ZM65.4 158C76.2 158 84.7333 154.267 91 146.8C97 139.733 100 130.8 100 120C100 109.2 97 100.267 91 93.2C84.7333 85.7333 76.2 82 65.4 82C54.6 82 46.0667 85.7333 39.8 93.2C33.8 100.267 30.8 109.2 30.8 120C30.8 130.8 33.8 139.733 39.8 146.8C46.0667 154.267 54.6 158 65.4 158ZM149.891 86C157.891 74.2667 169.824 68.4 185.691 68.4C200.091 68.4 211.757 73.4 220.691 83.4C229.624 93.2667 234.091 105.467 234.091 120C234.091 134.533 229.624 146.733 220.691 156.6C211.757 166.6 199.757 171.6 184.691 171.6C169.624 171.6 158.024 165.667 149.891 153.8V209.6H134.891V70H149.891V86ZM183.691 82C172.891 82 164.357 85.7333 158.091 93.2C152.091 100.267 149.091 109.2 149.091 120C149.091 130.8 152.091 139.733 158.091 146.8C164.357 154.267 172.891 158 183.691 158C194.357 158 203.024 154.267 209.691 146.8C215.957 139.733 219.091 130.8 219.091 120C219.091 109.2 215.957 100.267 209.691 93.2C203.024 85.7333 194.357 82 183.691 82ZM298.241 158C311.707 158 321.374 152.4 327.241 141.2H343.641C340.174 150.267 334.641 157.6 327.041 163.2C319.574 168.8 309.907 171.6 298.041 171.6C282.974 171.6 270.707 166.6 261.241 156.6C252.041 146.867 247.441 134.667 247.441 120C247.441 105.2 251.841 93 260.641 83.4C269.974 73.4 282.107 68.4 297.041 68.4C311.974 68.4 324.107 73.4 333.441 83.4C342.241 93 346.641 105.2 346.641 120V126H262.841C263.907 135.2 267.574 142.8 273.841 148.8C280.241 154.933 288.374 158 298.241 158ZM297.041 82C287.841 82 280.107 84.8667 273.841 90.6C267.974 96.0667 264.374 103.2 263.041 112H331.041C329.707 103.2 326.107 96.0667 320.241 90.6C313.974 84.8667 306.241 82 297.041 82ZM379.969 70V85.6C383.569 80.8 387.969 76.7333 393.169 73.4C398.369 70.0667 404.302 68.4 410.969 68.4C417.635 68.4 423.369 69.3333 428.169 71.2C432.969 73.0667 437.169 75.8667 440.769 79.6C449.035 87.7333 453.169 98.4667 453.169 111.8V170H438.169V112.2C438.169 103 435.569 95.6667 430.369 90.2C425.169 84.7333 418.435 82 410.169 82C401.769 82 394.635 84.8 388.769 90.4C382.902 96.1333 379.969 103.467 379.969 112.4V170H364.969V70H379.969Z" fill="#00A699"/>
<path d="M419.5 68L419.612 68.3455H419.976L419.682 68.559L419.794 68.9045L419.5 68.691L419.206 68.9045L419.318 68.559L419.024 68.3455H419.388L419.5 68Z" fill="#C4C4C4"/>
<path d="M549 17C539.151 17 529.398 18.9399 520.299 22.709C511.199 26.4781 502.931 32.0026 495.967 38.967C489.003 45.9314 483.478 54.1993 479.709 63.2987C475.94 72.3982 474 82.1509 474 92C474 101.849 475.94 111.602 479.709 120.701C483.478 129.801 489.003 138.069 495.967 145.033C502.931 151.997 511.199 157.522 520.299 161.291C529.398 165.06 539.151 167 549 167L549 142.002C542.434 142.002 535.931 140.709 529.865 138.196C523.798 135.683 518.286 132 513.643 127.357C509 122.714 505.317 117.202 502.804 111.135C500.291 105.069 498.997 98.5664 498.997 92C498.997 85.4336 500.291 78.9315 502.804 72.8649C505.317 66.7983 509 61.2861 513.643 56.6429C518.286 51.9997 523.798 48.3166 529.865 45.8037C535.931 43.2909 542.434 41.9975 549 41.9975L549 17Z" fill="#FF5A5F"/>
<path d="M549 17H586.5C593.404 17 599 22.5964 599 29.5C599 36.4036 593.404 42 586.5 42H549V17Z" fill="#FF5A5F"/>
<path d="M524 92.5C524 85.5964 529.596 80 536.5 80H561.5C568.404 80 574 85.5964 574 92.5C574 99.4036 568.404 105 561.5 105H536.5C529.596 105 524 99.4036 524 92.5Z" fill="#FF5A5F"/>
<path d="M549 142H586.5C593.404 142 599 147.596 599 154.5C599 161.404 593.404 167 586.5 167H549V142Z" fill="#FF5A5F"/>
<line x1="587.793" y1="30.7359" x2="699.377" y2="152.285" stroke="#FF5A5F" stroke-width="25" stroke-linecap="round" stroke-linejoin="round"/>
<line x1="12.5" y1="-12.5" x2="177.5" y2="-12.3228" transform="matrix(0.677056 -0.735931 -0.735931 -0.677056 570.13 153.947)" stroke="#FF5A5F" stroke-width="25" stroke-linecap="round" stroke-linejoin="round"/>
<path d="M711.592 17.2543C715.247 17.2537 718.053 20.4931 717.532 24.1105L713.316 53.3543C712.582 58.4422 706.208 60.3121 702.842 56.4268L677.512 27.1876C674.146 23.3023 676.906 17.2598 682.046 17.259L711.592 17.2543Z" fill="#FF5A5F"/>
</svg>
